<svg xmlns="http://www.w3.org/2000/svg" width="46" height="49.938" viewBox="0 0 46 49.938">
  <defs>
    <style>
      .cls-1 {
        fill: #1c3e9b;
        fill-rule: evenodd;
      }
    </style>
  </defs>
  <path class="cls-1" d="M398,104.609c3.695,0,12.384-4.359,12.384-14.805,0-1.457-.037-2.865-0.159-4.194a12.375,12.375,0,0,0-2.11-6.714c-1.746-2.419-4.8-3.9-10.115-3.9s-8.367,1.477-10.114,3.895a12.38,12.38,0,0,0-2.11,6.716c-0.122,1.33-.159,2.737-0.159,4.194,0,10.445,8.688,14.8,12.383,14.8h0Zm4.042-24.186c-0.36.894-.541,1.34-0.9,2.234a10.433,10.433,0,0,0-6.28,0c-0.36-.894-0.541-1.34-0.9-2.234a12.925,12.925,0,0,1,8.084,0h0Zm-14.583,7.116a2.691,2.691,0,0,0,1.687,1.592c1.079,0.127,2.869-3.745,8.854-3.754,5.986,0.009,7.776,3.881,8.854,3.754a2.692,2.692,0,0,0,1.688-1.592c0.028,0.75.039,1.509,0.039,2.266a13.085,13.085,0,0,1-4.229,10.024,8.2,8.2,0,0,1-12.7,0,13.082,13.082,0,0,1-4.23-10.024c0-.757.011-1.516,0.039-2.266h0Zm0,0,33.531,32.254c-0.632-3.853-1.934-8.817-4.545-10.581-1.783-1.2-8-4.463-10.659-5.854l-0.045-.023a0.881,0.881,0,0,0-.944.08,11.369,11.369,0,0,1-4.53,2.146,0.861,0.861,0,0,0-.622.528L398,110.337l-1.644-4.248a0.861,0.861,0,0,0-.623-0.528,11.371,11.371,0,0,1-4.529-2.146,0.884,0.884,0,0,0-.946-0.08c-2.624,1.375-8.92,4.7-10.695,5.872-3,1.984-4.319,9.166-4.552,10.587a0.854,0.854,0,0,0,.038.419c0.065,0.176,1.059,2.7,6.029,4.729a2.472,2.472,0,0,1,1.1-.774,2.452,2.452,0,0,1-1.292-1.038,2.372,2.372,0,0,1-.043-2.38,7.338,7.338,0,0,1,12.415-.552h9.485a7.138,7.138,0,0,1,.9-1.068,7.3,7.3,0,0,1,5.135-2.094h0a7.3,7.3,0,0,1,6.378,3.694,2.376,2.376,0,0,1-.038,2.381,2.442,2.442,0,0,1-1.289,1.04,2.473,2.473,0,0,1,1.114.785c4.957-2.028,5.95-4.547,6.013-4.723a0.847,0.847,0,0,0,.039-0.42h0Zm0,0" transform="translate(-375 -75)"/>
</svg>
